<?xml version="1.0" standalone="no"?>
<!DOCTYPE svg PUBLIC "-//W3C//DTD SVG 20010904//EN"
 "http://www.w3.org/TR/2001/REC-SVG-20010904/DTD/svg10.dtd">
<svg version="1.0" xmlns="http://www.w3.org/2000/svg"
 width="310.000000pt" height="310.000000pt" viewBox="0 0 310.000000 310.000000"
 preserveAspectRatio="xMidYMid meet">
<metadata>
Created by potrace 1.11, written by Peter Selinger 2001-2013
</metadata>
<g transform="translate(0.000000,310.000000) scale(0.100000,-0.100000)"
fill="#000000" stroke="none">
<path d="M640 3090 c-58 -4 -121 -12 -140 -17 -181 -53 -324 -167 -405 -324
-84 -163 -80 -99 -80 -1184 0 -907 1 -964 19 -1029 26 -95 60 -170 112 -242
117 -164 280 -252 510 -274 144 -13 1688 -13 1808 0 119 14 234 54 320 111
116 78 172 140 230 254 75 150 71 87 71 1165 0 1085 5 1014 -76 1179 -57 115
-171 231 -279 284 -122 59 -171 68 -415 77 -264 10 -1527 10 -1675 0z m1214
-495 c311 -218 549 -570 621 -918 21 -104 21 -305 0 -407 l-16 -78 47 -74 c64
-98 100 -182 124 -281 38 -157 14 -354 -29 -248 -17 39 -94 117 -144 144 -35
18 -58 22 -142 22 -110 0 -181 -19 -305 -81 -145 -72 -295 -100 -494 -91 -72
3 -164 12 -205 21 -356 78 -710 306 -928 600 -40 55 -71 101 -69 104 3 2 31
-14 63 -35 383 -259 868 -317 1201 -145 l53 28 -108 89 c-101 83 -402 376
-504 490 -204 229 -489 588 -476 601 2 3 42 -28 88 -67 122 -106 345 -281 495
-391 149 -109 314 -221 314 -214 0 3 -40 50 -88 104 -48 54 -115 132 -147 173
-33 40 -65 80 -71 86 -25 26 -272 359 -294 398 -23 40 -23 40 41 -19 35 -33
93 -87 129 -121 56 -53 99 -91 275 -244 106 -93 309 -249 475 -366 153 -107
190 -129 200 -119 4 5 18 50 31 99 30 116 32 317 5 443 -35 167 -117 361 -207
494 -22 31 -39 60 -39 63 0 8 32 -10 104 -60z"/>
</g>
</svg>
